<svg xmlns="http://www.w3.org/2000/svg" viewBox="0 0 492 492" style="enable-background:new 0 0 492 492" xml:space="preserve"><path style="fill-rule:evenodd;clip-rule:evenodd;fill:#212121" d="M204.668 425.324c-.192 0-.408 0-.624-.024a5.748 5.748 0 0 1-5.112-6.336c4.32-40.824-8.496-59.616-19.8-76.2-7.56-11.064-14.688-21.528-15.144-36.312-.096-3.168 2.4-5.832 5.568-5.928s5.832 2.4 5.928 5.568c.36 11.424 6 19.704 13.152 30.168 11.808 17.304 26.496 38.856 21.72 83.904a5.705 5.705 0 0 1-5.688 5.16zM272.684 428.204a5.757 5.757 0 0 1-5.76-5.664c-.048-3.24-.096-6.312-.168-9.264-.336-17.568-.6-30.264 2.928-40.296 1.056-3 4.344-4.584 7.344-3.528 3 1.056 4.584 4.344 3.528 7.344-2.832 8.064-2.616 19.896-2.28 36.264.048 2.976.12 6.048.168 9.336.048 3.192-2.496 5.808-5.664 5.832-.024-.024-.048-.024-.096-.024z"/><g><path style="fill-rule:evenodd;clip-rule:evenodd;fill:#212121" d="M246.26 431.06c-24.888 0-49.008-4.872-71.736-14.496-21.96-9.288-41.664-22.584-58.584-39.504-16.92-16.92-30.216-36.648-39.504-58.584-9.624-22.728-14.496-46.872-14.496-71.736s4.872-49.008 14.496-71.736c9.288-21.96 22.584-41.664 39.504-58.584s36.648-30.216 58.584-39.504c22.728-9.624 46.848-14.497 71.736-14.497 24.888 0 49.008 4.872 71.736 14.496 21.96 9.288 41.664 22.584 58.584 39.504 16.92 16.92 30.216 36.648 39.504 58.584 9.624 22.728 14.496 46.872 14.496 71.736s-4.872 49.008-14.496 71.736c-9.288 21.96-22.584 41.664-39.504 58.584-16.92 16.92-36.648 30.216-58.584 39.504-22.728 9.625-46.848 14.497-71.736 14.497zm0-357.12c-23.328 0-45.96 4.56-67.248 13.584-20.592 8.688-39.072 21.168-54.936 37.032-15.864 15.864-28.344 34.344-37.032 54.936-9.024 21.288-13.584 43.92-13.584 67.248s4.56 45.96 13.584 67.248c8.712 20.568 21.168 39.048 37.032 54.936 15.864 15.864 34.344 28.32 54.936 37.032 21.288 9 43.92 13.584 67.248 13.584s45.96-4.56 67.248-13.584c20.568-8.712 39.048-21.168 54.936-37.032 15.864-15.864 28.32-34.344 37.032-54.936 9-21.288 13.584-43.92 13.584-67.248s-4.56-45.96-13.584-67.248c-8.712-20.568-21.168-39.048-37.032-54.936-15.864-15.864-34.344-28.32-54.936-37.032C292.22 78.5 269.588 73.94 246.26 73.94z"/></g><g><path style="fill-rule:evenodd;clip-rule:evenodd;fill:#212121" d="M169.748 312.044a5.775 5.775 0 0 1-5.76-5.592c-.192-6.144-.264-101.832-.072-107.76.192-5.904 2.184-11.04 5.784-14.88a19.607 19.607 0 0 1 12.696-6.144c5.664-.504 11.112 1.224 14.904 4.704 4.152 3.816 6.264 9.36 6.288 16.512a5.746 5.746 0 0 1-5.76 5.76 5.761 5.761 0 0 1-5.76-5.76c0-3.792-.864-6.504-2.544-8.04-2.088-1.92-5.208-1.8-6.12-1.728-5.688.504-7.848 5.664-7.968 9.912-.168 5.424-.096 101.472.072 107.064.096 3.168-2.4 5.832-5.568 5.928-.072.024-.12.024-.192.024zM275.132 380.612a5.765 5.765 0 0 1-5.376-7.824c7.2-18.744 26.856-37.248 44.184-53.568 7.56-7.128 14.712-13.848 19.944-19.8 6.336-7.176 7.872-11.016 8.064-12.984.192-2.064-.624-4.968-2.544-6.336-1.176-.816-2.88-1.776-5.736-1.896-4.344-.168-9.912 1.8-16.08 5.688-1.056.672-5.184 3.84-9.552 7.2-6.696 5.16-15.888 12.192-23.472 17.568a5.774 5.774 0 0 1-8.04-1.392 5.774 5.774 0 0 1 1.392-8.04c7.392-5.232 16.488-12.192 23.112-17.28 5.856-4.512 9-6.888 10.416-7.8 9.504-6 23.184-11.472 34.56-3.504 5.856 4.104 7.944 11.448 7.392 16.896-1.104 11.328-14.568 24-31.584 40.056-16.44 15.48-35.064 33.048-41.328 49.344-.84 2.28-3.024 3.672-5.352 3.672z"/><path style="fill-rule:evenodd;clip-rule:evenodd;fill:#212121" d="M198.308 268.076a5.762 5.762 0 0 1-5.76-5.688c-.144-11.328-.864-68.616-.264-84.696.456-12.048 9.912-19.224 18.816-19.224h.048c5.232.024 9.84 1.416 13.32 4.056 3.168 2.4 6.984 7.008 7.008 15.36.024 3.192-2.568 5.76-5.736 5.784h-.024c-3.168 0-5.736-2.568-5.76-5.736 0-2.16-.024-7.92-8.832-7.944h-.024c-2.712 0-7.08 2.208-7.296 8.136-.576 15.816.12 72.84.264 84.12.048 3.192-2.496 5.784-5.688 5.832h-.072z"/><path style="fill-rule:evenodd;clip-rule:evenodd;fill:#212121" d="M225.956 261.404a5.751 5.751 0 0 1-5.76-5.712c-.12-15.744-.192-73.752-.192-75.6l-.024-2.016c-.216-13.728-.288-18.336 3.72-23.28 4.416-5.448 11.88-8.4 19.008-7.488 4.752.6 8.904 2.496 12.048 5.472 3.384 3.24 5.328 7.608 5.424 12.312.144 6.192.168 14.592.192 22.728 0 2.16.024 4.296.024 6.336a5.731 5.731 0 0 1-5.736 5.784h-.024c-3.168 0-5.736-2.568-5.76-5.736 0-2.04-.024-4.176-.024-6.36-.024-8.064-.048-16.416-.192-22.512-.072-2.76-2.04-5.952-7.392-6.648-3.168-.408-6.72.96-8.616 3.312-1.272 1.584-1.344 3.84-1.152 15.864l.024 2.064v.072c0 .6.096 59.688.192 75.576a5.762 5.762 0 0 1-5.712 5.808c-.024.024-.048.024-.048.024z"/><path style="fill-rule:evenodd;clip-rule:evenodd;fill:#212121" d="M281.276 309.716a5.746 5.746 0 0 1-5.76-5.76c0-8.376.096-31.08.192-55.104.12-28.224.24-57.384.24-70.032 0-7.776-6-7.776-8.28-7.776-7.32 0-7.32 5.928-7.32 7.896 0 .504.192 52.248 0 80.04a5.746 5.746 0 0 1-5.808 5.712 5.746 5.746 0 0 1-5.712-5.808c.192-27.72 0-79.416 0-79.92 0-7.944 3.288-12.504 6.048-14.928 3.288-2.904 7.848-4.488 12.792-4.488 8.76 0 13.512 3.84 15.936 7.056 2.472 3.264 3.84 7.608 3.84 12.24 0 12.648-.12 41.832-.24 70.08-.096 24.024-.192 46.704-.192 55.056.024 3.144-2.568 5.736-5.736 5.736z"/></g></svg>